<svg width="176" height="39" viewBox="0 0 176 39" fill="none" xmlns="http://www.w3.org/2000/svg">
<path d="M26.1642 0.0896861C20.0137 0.0896861 15.5228 4.30493 15.5228 10.0448C15.5228 15.7848 20.0137 20 26.1642 20C32.3147 20 36.9032 15.8744 36.9032 10.0448C36.9032 4.30493 32.4124 0.0896861 26.1642 0.0896861ZM26.1642 16.7713C22.1615 16.7713 19.2326 13.991 19.2326 10.0448C19.2326 6.09865 22.1615 3.31839 26.1642 3.31839C30.1669 3.31839 33.1934 6.09865 33.1934 10.0448C33.1934 13.991 30.2646 16.7713 26.1642 16.7713ZM79.957 0.538117L78.6879 3.67713H72.2444V19.4619H68.6322V3.67713H60.5291L61.7983 0.538117H79.957ZM54.6715 11.5695C55.7454 11.2108 56.7216 10.583 57.5027 9.77578C58.2837 8.78924 58.6742 7.53363 58.6742 6.36771C58.6742 4.57399 58.0884 3.13901 57.0145 2.15247C55.843 1.07623 54.2809 0.538117 52.1331 0.538117H40.2226V19.5516H43.8348V11.9283H50.4735L55.3549 19.5516H59.26L54.3786 11.6592L54.6715 11.5695ZM51.8403 8.69955H43.8348V3.67713H51.4497C52.3284 3.67713 53.207 3.67713 53.8904 4.12556C54.5738 4.57399 54.9643 5.38117 54.8667 6.09866C54.8667 6.81614 54.6715 7.53363 54.0857 8.07175C53.4999 8.69955 52.6213 8.69955 51.8403 8.69955ZM7.02919 0.538117H15.0347L13.7655 3.67713H3.61222V8.69955H11.9106L10.6414 11.8386H3.61222V19.4619H0V0.538117H7.02919ZM103.583 11.5695C104.657 11.2108 105.633 10.583 106.414 9.77578C107.195 8.78924 107.586 7.62332 107.586 6.36771C107.586 4.57399 107 3.13901 105.926 2.15247C104.754 1.07623 103.192 0.538117 101.045 0.538117H89.134V19.5516H92.7462V11.9283H99.3849L104.266 19.5516H108.269L103.29 11.7489L103.583 11.5695ZM100.752 8.69955H92.7462V3.67713H100.459C101.337 3.67713 102.216 3.67713 102.899 4.12556C103.583 4.57399 103.973 5.38117 103.876 6.09866C103.876 6.81614 103.681 7.53363 103.095 8.07175C102.411 8.69955 101.533 8.69955 100.752 8.69955ZM121.156 0.0896861C115.005 0.0896861 110.514 4.30493 110.514 10.0448C110.514 15.7848 115.005 20 121.156 20C127.306 20 131.895 15.7848 131.895 10.0448C131.895 4.30493 127.404 0.0896861 121.156 0.0896861ZM121.156 16.7713C117.153 16.7713 114.224 13.991 114.224 10.0448C114.224 6.09865 117.153 3.31839 121.156 3.31839C125.159 3.31839 128.185 6.09865 128.185 10.0448C128.185 13.991 125.256 16.7713 121.156 16.7713ZM153.959 13.5426C153.959 15.3363 153.08 17.0404 151.518 18.1166C149.273 19.8206 146.441 20 144.489 20C142.439 20 140.291 19.7309 138.338 19.1031C137.069 18.6547 135.898 18.1166 134.824 17.3991L136.191 13.991C137.362 14.7982 138.534 15.5157 139.9 15.9641C141.462 16.5022 143.122 16.7713 144.782 16.7713C146.441 16.7713 147.613 16.5022 148.589 16.0538C150.151 15.2466 150.249 14.0807 150.249 13.6323C150.249 12.5561 149.565 11.8386 148.394 11.3901C147.515 11.1211 146.539 10.9417 145.563 10.852L142.146 10.583C139.315 10.4036 137.264 9.77578 136.191 8.69955C135.409 7.98206 134.921 6.90583 135.019 5.8296C135.019 4.21525 135.8 2.69058 137.167 1.70404C138.143 0.986547 140.096 0 143.513 0C145.465 0 147.418 0.269058 149.273 0.896861C150.444 1.25561 151.518 1.70404 152.494 2.33184L151.03 5.47085C149.956 4.84305 148.784 4.30493 147.515 3.94619C146.051 3.49776 144.586 3.31839 143.024 3.31839C142.048 3.31839 140.974 3.49776 139.998 3.8565C138.631 4.39462 138.534 5.29148 138.534 5.65022C138.534 6.18834 138.729 6.81614 139.998 7.26457C140.486 7.35426 141.267 7.53363 143.513 7.713L146.344 7.89238C148.784 8.07175 150.737 8.69955 152.006 9.6861C153.178 10.6726 153.861 12.1076 153.959 13.5426ZM175.144 13.5426C175.144 15.3363 174.265 17.0404 172.703 18.1166C170.458 19.8206 167.627 20 165.674 20C163.526 20 161.476 19.7309 159.426 19.1031C158.157 18.6547 156.985 18.1166 155.911 17.3991L157.278 13.991C158.45 14.7982 159.719 15.5157 161.086 15.9641C162.648 16.5022 164.307 16.7713 165.967 16.7713C167.627 16.7713 168.798 16.5022 169.774 16.0538C171.336 15.2466 171.434 14.0807 171.434 13.6323C171.434 12.5561 170.751 11.8386 169.579 11.3901C168.701 11.1211 167.627 10.9417 166.65 10.852L163.233 10.583C160.402 10.4036 158.352 9.77578 157.278 8.69955C156.497 7.98206 156.009 6.90583 156.107 5.8296C156.107 4.21525 156.888 2.69058 158.254 1.70404C159.231 0.986547 161.183 0 164.6 0C166.553 0 168.505 0.269058 170.36 0.896861C171.532 1.25561 172.606 1.70404 173.582 2.33184L172.313 5.47085C171.239 4.84305 170.067 4.30493 168.798 3.94619C167.334 3.49776 165.869 3.31839 164.307 3.31839C163.331 3.31839 162.257 3.49776 161.281 3.8565C159.914 4.39462 159.816 5.29148 159.816 5.65022C159.816 6.18834 160.012 6.81614 161.281 7.26457C161.769 7.35426 162.55 7.53363 164.795 7.713L167.627 7.89238C170.067 8.07175 172.02 8.69955 173.289 9.6861C174.363 10.6726 175.144 12.1076 175.144 13.5426Z" fill="url(#paint0_linear)"/>
<path d="M42.2432 39H41.4749L37.7432 30.2195H38.8407L41.8041 37.4634L44.6578 30.2195H45.7554L42.2432 39ZM52.3407 30.1098H57.2798V31.0976H53.4383V33.9512H56.9505V34.939H53.4383V37.9024H57.4993V38.8902H52.4505V30.1098H52.3407ZM71.2188 38.8902L65.731 31.9756V38.8902H64.7432V30.1098H65.6212L71.109 37.0244V30.1098H72.0968V38.8902H71.2188ZM78.5724 30.1098H85.8163V31.0976H82.7432V38.8902H81.6456V31.0976H78.5724V30.1098ZM99.3163 35.2683C99.3163 37.9024 97.67 39 95.9139 39C93.8285 39 92.292 37.6829 92.292 35.1585V30.1098H93.3895V34.939C93.3895 36.8049 94.2676 38.0122 95.9139 38.0122C97.3407 38.0122 98.2188 37.0244 98.2188 35.0488V30.1098H99.3163V35.2683ZM106.89 38.8902V30.1098H109.194C111.609 30.1098 112.268 31.3171 112.268 32.7439C112.268 34.061 111.28 34.939 110.402 35.2683L113.365 39H112.048L109.304 35.4878H107.877V39H106.89V38.8902ZM107.987 31.0976V34.3902H109.304C110.292 34.3902 111.28 33.7317 111.28 32.7439C111.28 31.8659 110.731 31.0976 109.194 31.0976H107.987ZM120.06 30.1098H124.999V31.0976H121.158V33.9512H124.67V34.939H121.158V37.9024H125.219V38.8902H120.17V30.1098H120.06ZM131.914 32.3049C131.914 30.9878 132.902 30 134.548 30C135.536 30 136.414 30.3293 136.963 30.878L136.414 31.6463C135.975 31.2073 135.426 30.878 134.658 30.878C133.67 30.878 133.121 31.4268 133.121 32.1951C133.121 34.3902 137.402 33.5122 137.402 36.5854C137.402 38.0122 136.085 39 134.548 39C133.451 39 132.243 38.561 131.804 37.6829L132.463 36.9146C133.011 37.5732 133.89 37.9024 134.658 37.9024C135.536 37.9024 136.414 37.4634 136.414 36.5854C136.194 34.5 131.914 35.1585 131.914 32.3049Z" fill="#0A1E50"/>
<defs>
<linearGradient id="paint0_linear" x1="-4.89346e-07" y1="15" x2="175.528" y2="15" gradientUnits="userSpaceOnUse">
<stop stop-color="#233768"/>
<stop offset="1" stop-color="#00DCAE"/>
</linearGradient>
</defs>
</svg>
