<svg width="12" height="12" viewBox="0 0 12 12" fill="none" xmlns="http://www.w3.org/2000/svg">
<path fill-rule="evenodd" clip-rule="evenodd" d="M10.9888 9.33342C11.6481 8.34673 12 7.18669 12 6H6V0C4.81331 0 3.65328 0.351894 2.66658 1.01118C1.67989 1.67047 0.910851 2.60754 0.456726 3.7039C0.00259972 4.80026 -0.11622 6.00666 0.115291 7.17054C0.346802 8.33443 0.918247 9.40353 1.75736 10.2426C2.59648 11.0818 3.66557 11.6532 4.82946 11.8847C5.99335 12.1162 7.19975 11.9974 8.2961 11.5433C9.39246 11.0892 10.3295 10.3201 10.9888 9.33342ZM8.91342 0.380602C8.30679 0.129329 7.65661 0 7 0V5L12 5C12 4.34339 11.8707 3.69321 11.6194 3.08658C11.3681 2.47996 10.9998 1.92876 10.5355 1.46447C10.0712 1.00017 9.52005 0.631876 8.91342 0.380602Z" fill="#7C7C7C"/>
</svg>
