 <svg width="14" height="14" viewBox="0 0 14 14" fill="none" xmlns="http://www.w3.org/2000/svg">
    <path fill-rule="evenodd" clip-rule="evenodd"
          d="M0 3C0 1.34315 1.34315 0 3 0H5V2H3C2.44772 2 2 2.44772 2 3V11C2 11.5523 2.44772 12 3 12H11C11.5523 12 12 11.5523 12 11V9H14V11C14 12.6569 12.6569 14 11 14H3C1.34315 14 0 12.6569 0 11V3ZM7 0H13H14V1V7H12V3.41421L6.70711 8.70711C6.31658 9.09763 5.68342 9.09763 5.29289 8.70711C4.90237 8.31658 4.90237 7.68342 5.29289 7.29289L10.5858 2H7V0Z"
          fill="white" />
</svg>
