<svg width="18" height="18" viewBox="0 0 18 18" fill="none" xmlns="http://www.w3.org/2000/svg">
<path fill-rule="evenodd" clip-rule="evenodd" d="M0 2.059C0 0.922335 0.922335 0 2.059 0C3.19495 0 4.11728 0.922335 4.118 2.059C4.118 3.19566 3.19566 4.13729 2.059 4.13729C0.922335 4.13729 0 3.19566 0 2.059ZM17.1421 17.147V17.1463H17.1464V10.8578C17.1464 7.78146 16.4841 5.41168 12.8876 5.41168C11.1587 5.41168 9.99846 6.36045 9.52479 7.25992H9.47478V5.69888H6.06478V17.1463H9.61552V11.4779C9.61552 9.98549 9.89843 8.54233 11.7467 8.54233C13.5678 8.54233 13.5949 10.2455 13.5949 11.5737V17.147H17.1421ZM0.282852 5.6991H3.83788V17.1465H0.282852V5.6991Z" fill="#0B204E"/>
</svg>
