<svg width="19" height="16" viewBox="0 0 19 16" fill="none" xmlns="http://www.w3.org/2000/svg">
<path d="M5.97536 16C13.1457 16 17.0665 9.84491 17.0665 4.50764C17.0665 4.33282 17.0631 4.15878 17.0555 3.98553C17.8167 3.41538 18.4783 2.70387 19 1.89393C18.3016 2.21562 17.5499 2.43219 16.7614 2.52984C17.5662 2.02978 18.1841 1.23873 18.4756 0.295702C17.7224 0.758358 16.8883 1.09462 16.0003 1.27614C15.2889 0.491004 14.2762 0 13.1548 0C11.0021 0 9.25632 1.80888 9.25632 4.03869C9.25632 4.35565 9.29052 4.66396 9.35741 4.95966C6.11749 4.79074 3.24467 3.18346 1.32223 0.739461C0.987444 1.33638 0.794404 2.02978 0.794404 2.76963C0.794404 4.17098 1.48259 5.40814 2.52912 6.13186C1.88957 6.11138 1.28879 5.92947 0.763622 5.62668C0.763048 5.64362 0.76305 5.66014 0.76305 5.67826C0.76305 7.6344 2.10674 9.26767 3.89048 9.6378C3.56292 9.73033 3.21825 9.77994 2.86257 9.77994C2.61177 9.77994 2.36742 9.75436 2.12992 9.7071C2.6262 11.312 4.06528 12.4799 5.7715 12.5126C4.43731 13.5962 2.75655 14.2415 0.929871 14.2415C0.615607 14.2415 0.305143 14.223 0 14.1856C1.72522 15.3314 3.77382 16 5.97556 16" fill="#0B204E"/>
</svg>
